<mxfile host="app.diagrams.net" modified="2021-03-04T14:56:22.132Z" agent="5.0 (Macintosh; Intel Mac OS X 10_15_7) AppleWebKit/537.36 (KHTML, like Gecko) Chrome/88.0.4324.182 Safari/537.36 Edg/88.0.705.81" etag="x2VtuwAP1hvBB-25u25g" version="14.4.4" type="github">
  <diagram id="hsIULaZQDqNOkCKI7QrT" name="Page-1">
    <mxGraphModel dx="1186" dy="741" grid="1" gridSize="10" guides="1" tooltips="1" connect="1" arrows="1" fold="1" page="1" pageScale="1" pageWidth="850" pageHeight="1100" math="0" shadow="0">
      <root>
        <mxCell id="0" />
        <mxCell id="1" parent="0" />
        <mxCell id="WFP0zRQW6cUiM0HQyuW1-3" value="" style="edgeStyle=orthogonalEdgeStyle;rounded=0;orthogonalLoop=1;jettySize=auto;html=1;" edge="1" parent="1" source="WFP0zRQW6cUiM0HQyuW1-1" target="WFP0zRQW6cUiM0HQyuW1-2">
          <mxGeometry relative="1" as="geometry" />
        </mxCell>
        <mxCell id="WFP0zRQW6cUiM0HQyuW1-1" value="a.com CSS" style="rounded=0;whiteSpace=wrap;html=1;" vertex="1" parent="1">
          <mxGeometry x="350" y="80" width="120" height="60" as="geometry" />
        </mxCell>
        <mxCell id="WFP0zRQW6cUiM0HQyuW1-5" value="" style="edgeStyle=orthogonalEdgeStyle;rounded=0;orthogonalLoop=1;jettySize=auto;html=1;" edge="1" parent="1" source="WFP0zRQW6cUiM0HQyuW1-2" target="WFP0zRQW6cUiM0HQyuW1-4">
          <mxGeometry relative="1" as="geometry" />
        </mxCell>
        <mxCell id="WFP0zRQW6cUiM0HQyuW1-2" value="General Teams CSS" style="rounded=0;whiteSpace=wrap;html=1;" vertex="1" parent="1">
          <mxGeometry x="350" y="220" width="120" height="60" as="geometry" />
        </mxCell>
        <mxCell id="WFP0zRQW6cUiM0HQyuW1-7" value="" style="edgeStyle=orthogonalEdgeStyle;rounded=0;orthogonalLoop=1;jettySize=auto;html=1;" edge="1" parent="1" source="WFP0zRQW6cUiM0HQyuW1-4" target="WFP0zRQW6cUiM0HQyuW1-6">
          <mxGeometry relative="1" as="geometry" />
        </mxCell>
        <mxCell id="WFP0zRQW6cUiM0HQyuW1-4" value="Style 31 CSS" style="rounded=0;whiteSpace=wrap;html=1;" vertex="1" parent="1">
          <mxGeometry x="350" y="360" width="120" height="60" as="geometry" />
        </mxCell>
        <mxCell id="WFP0zRQW6cUiM0HQyuW1-6" value="Page Override CSS" style="rounded=0;whiteSpace=wrap;html=1;" vertex="1" parent="1">
          <mxGeometry x="350" y="500" width="120" height="60" as="geometry" />
        </mxCell>
      </root>
    </mxGraphModel>
  </diagram>
</mxfile>
